<svg width="14" height="16" viewBox="0 0 14 16" fill="none" xmlns="http://www.w3.org/2000/svg">
<path d="M13.625 5C13.8125 5 14 4.84375 14 4.625V3.5C14 2.6875 13.3125 2 12.5 2H11V0.375C11 0.1875 10.8125 0 10.625 0H9.375C9.15625 0 9 0.1875 9 0.375V2H5V0.375C5 0.1875 4.8125 0 4.625 0H3.375C3.15625 0 3 0.1875 3 0.375V2H1.5C0.65625 2 0 2.6875 0 3.5V4.625C0 4.84375 0.15625 5 0.375 5H13.625ZM0.375 6C0.15625 6 0 6.1875 0 6.375V14.5C0 15.3438 0.65625 16 1.5 16H12.5C13.3125 16 14 15.3438 14 14.5V6.375C14 6.1875 13.8125 6 13.625 6H0.375ZM10.7812 9C10.9062 9.15625 10.9062 9.40625 10.7812 9.53125L6.3125 13.9688C6.15625 14.125 5.90625 14.125 5.78125 13.9688L3.1875 11.375C3.0625 11.2188 3.0625 11 3.1875 10.8438L4.09375 9.96875C4.21875 9.8125 4.46875 9.8125 4.625 9.96875L6.0625 11.4062L9.375 8.125C9.5 7.96875 9.75 7.96875 9.90625 8.125L10.7812 9Z" fill="#FC732F"/>
</svg>
