<svg width="14" height="16" viewBox="0 0 14 16" fill="none" xmlns="http://www.w3.org/2000/svg">
<path d="M13.625 5C13.8125 5 14 4.84375 14 4.625V3.5C14 2.6875 13.3125 2 12.5 2H11V0.375C11 0.1875 10.8125 0 10.625 0H9.375C9.15625 0 9 0.1875 9 0.375V2H5V0.375C5 0.1875 4.8125 0 4.625 0H3.375C3.15625 0 3 0.1875 3 0.375V2H1.5C0.65625 2 0 2.6875 0 3.5V4.625C0 4.84375 0.15625 5 0.375 5H13.625ZM0.375 6C0.15625 6 0 6.1875 0 6.375V14.5C0 15.3438 0.65625 16 1.5 16H12.5C13.3125 16 14 15.3438 14 14.5V6.375C14 6.1875 13.8125 6 13.625 6H0.375ZM8.40625 11L9.90625 12.5312C10.0625 12.6562 10.0625 12.9062 9.90625 13.0625L9.03125 13.9375C8.875 14.0938 8.625 14.0938 8.5 13.9375L7 12.4375L5.46875 13.9375C5.34375 14.0938 5.09375 14.0938 4.9375 13.9375L4.0625 13.0625C3.90625 12.9062 3.90625 12.6562 4.0625 12.5312L5.5625 11L4.0625 9.5C3.90625 9.375 3.90625 9.125 4.0625 8.96875L4.9375 8.09375C5.09375 7.9375 5.34375 7.9375 5.46875 8.09375L7 9.59375L8.5 8.09375C8.625 7.9375 8.875 7.9375 9.03125 8.09375L9.90625 8.96875C10.0625 9.125 10.0625 9.375 9.90625 9.5L8.40625 11Z" fill="#757575"/>
</svg>
